<svg width="25" height="24" viewBox="0 0 25 24" fill="none" xmlns="http://www.w3.org/2000/svg">
<path d="M12.0224 3.58728C12.0281 3.35631 12.3279 3.27146 12.4561 3.46284C14.0002 5.76973 16.6294 7.28848 19.6139 7.28848C20.7329 7.28848 21.8019 7.07448 22.7823 6.68607C20.8309 2.74069 16.7745 0.0227692 12.0809 0.000143355C5.4924 -0.0319099 0.0747474 5.31532 0.0228993 11.9041C0.0125297 13.2249 0.216151 14.4976 0.600769 15.6883C3.43639 15.4536 6.2079 14.2525 8.37704 12.0823C10.73 9.72924 11.9451 6.67004 12.0224 3.58728Z" fill="url(#paint0_linear_728_4516)"/>
<path d="M11.9651 23.9999C18.5526 24.031 23.9694 18.6866 24.0222 12.0987C24.0325 10.7779 23.8289 9.50616 23.4452 8.31548C20.6087 8.55022 17.8381 9.75127 15.668 11.9215C13.315 14.2745 12.1008 17.3337 12.0235 20.4165C12.0179 20.6475 11.7181 20.7323 11.5899 20.5409C10.0458 18.2341 7.41658 16.7153 4.43201 16.7153C3.31398 16.7153 2.24496 16.9284 1.26456 17.3168C3.21688 21.2603 7.27235 23.9772 11.9651 23.9999Z" fill="url(#paint1_linear_728_4516)"/>
<defs>
<linearGradient id="paint0_linear_728_4516" x1="22.7823" y1="-8.42108e-07" x2="9.57872" y2="18.4678" gradientUnits="userSpaceOnUse">
<stop stop-color="#4B1BF9"/>
<stop offset="1" stop-color="#3ECCEE"/>
</linearGradient>
<linearGradient id="paint1_linear_728_4516" x1="24.0225" y1="8.31547" x2="10.8228" y2="26.7809" gradientUnits="userSpaceOnUse">
<stop stop-color="#F20A49"/>
<stop offset="0.52" stop-color="#C119E7"/>
<stop offset="1" stop-color="#4675F3"/>
</linearGradient>
</defs>
</svg>
